<svg xmlns="http://www.w3.org/2000/svg" viewBox="0 0 1000 600" width="1000" height="600">
  <style>text { font-family: 'Helvetica Neue', Helvetica, Arial, sans-serif; } .t{fill:#111827} .s{fill:#6b7280}</style>
  <defs>
    <marker id="a-blue" markerWidth="10" markerHeight="7" refX="9" refY="3.5" orient="auto"><polygon points="0 0, 10 3.5, 0 7" fill="#2563eb"/></marker>
    <marker id="b-blue" markerWidth="10" markerHeight="7" refX="1" refY="3.5" orient="auto"><polygon points="10 0, 0 3.5, 10 7" fill="#2563eb"/></marker>
    <marker id="a-red" markerWidth="10" markerHeight="7" refX="9" refY="3.5" orient="auto"><polygon points="0 0, 10 3.5, 0 7" fill="#dc2626"/></marker>
    <marker id="b-red" markerWidth="10" markerHeight="7" refX="1" refY="3.5" orient="auto"><polygon points="10 0, 0 3.5, 10 7" fill="#dc2626"/></marker>
    <marker id="a-green" markerWidth="10" markerHeight="7" refX="9" refY="3.5" orient="auto"><polygon points="0 0, 10 3.5, 0 7" fill="#16a34a"/></marker>
    <marker id="b-green" markerWidth="10" markerHeight="7" refX="1" refY="3.5" orient="auto"><polygon points="10 0, 0 3.5, 10 7" fill="#16a34a"/></marker>
    <marker id="a-purple" markerWidth="10" markerHeight="7" refX="9" refY="3.5" orient="auto"><polygon points="0 0, 10 3.5, 0 7" fill="#9333ea"/></marker>
    <marker id="b-purple" markerWidth="10" markerHeight="7" refX="1" refY="3.5" orient="auto"><polygon points="10 0, 0 3.5, 10 7" fill="#9333ea"/></marker>
    <marker id="a-orange" markerWidth="10" markerHeight="7" refX="9" refY="3.5" orient="auto"><polygon points="0 0, 10 3.5, 0 7" fill="#ea580c"/></marker>
    <marker id="b-orange" markerWidth="10" markerHeight="7" refX="1" refY="3.5" orient="auto"><polygon points="10 0, 0 3.5, 10 7" fill="#ea580c"/></marker>
    <marker id="a-gray" markerWidth="10" markerHeight="7" refX="9" refY="3.5" orient="auto"><polygon points="0 0, 10 3.5, 0 7" fill="#6b7280"/></marker>
    <marker id="b-gray" markerWidth="10" markerHeight="7" refX="1" refY="3.5" orient="auto"><polygon points="10 0, 0 3.5, 10 7" fill="#6b7280"/></marker>
    <marker id="tri" markerWidth="14" markerHeight="12" refX="13" refY="6" orient="auto"><polygon points="0 0, 13 6, 0 12" fill="#ffffff" stroke="#6b7280" stroke-width="1.3"/></marker>
    <marker id="dia-open" markerWidth="16" markerHeight="10" refX="15" refY="5" orient="auto"><polygon points="0 5, 8 0, 15 5, 8 10" fill="#ffffff" stroke="#6b7280" stroke-width="1.3"/></marker>
    <marker id="dia-full" markerWidth="16" markerHeight="10" refX="15" refY="5" orient="auto"><polygon points="0 5, 8 0, 15 5, 8 10" fill="#6b7280"/></marker>
  </defs>
  <rect width="1000" height="600" fill="#ffffff"/>
  <text x="40" y="42" class="t" font-size="18" font-weight="600">Fase 47 — os módulos emergem, e AS DUAS fatias atravessam</text>
  <text x="40" y="64" class="s" font-size="13">Duas fatias, dois módulos — e nenhuma das duas cabe inteira num módulo só.</text>
  <rect x="60" y="100" width="420" height="232" rx="10" fill="#fff7ed" stroke="#fed7aa" stroke-width="1.4" stroke-dasharray="6,4"/>
  <text x="74" y="120" font-size="12.5" text-anchor="start" fill="#6b7280" font-weight="600">módulo  acervo  —  os livros que a biblioteca cadastrou</text>
  <rect x="90" y="146" width="360" height="48" rx="8" fill="#fff7ed" stroke="#fed7aa" stroke-width="1.5"/>
  <text x="270.0" y="175.0" font-size="13" text-anchor="middle" fill="#111827" font-weight="600">fatia  cadastrar-livro</text>
  <rect x="90" y="204" width="360" height="48" rx="8" fill="#fff7ed" stroke="#fed7aa" stroke-width="1.5"/>
  <text x="270.0" y="233.0" font-size="13" text-anchor="middle" fill="#111827" font-weight="600">fatia  buscar-livro</text>
  <rect x="90" y="262" width="360" height="58" rx="8" fill="#fff7ed" stroke="#fed7aa" stroke-width="1.5"/>
  <text x="270.0" y="288.0" font-size="11.5" text-anchor="middle" fill="#111827" font-weight="600">Livro · Isbn · NumeroRegistro</text>
  <text x="270.0" y="306.0" font-size="11.5" text-anchor="middle" fill="#6b7280" font-weight="400">LimiteDeLivros</text>
  <rect x="560" y="100" width="400" height="232" rx="10" fill="#eff6ff" stroke="#bfdbfe" stroke-width="1.4" stroke-dasharray="6,4"/>
  <text x="574" y="120" font-size="12.5" text-anchor="start" fill="#6b7280" font-weight="600">módulo  autoria  —  quem escreveu o quê</text>
  <rect x="590" y="152" width="340" height="50" rx="8" fill="#eff6ff" stroke="#bfdbfe" stroke-width="1.5"/>
  <text x="760.0" y="182.0" font-size="12.5" text-anchor="middle" fill="#111827" font-weight="600">Autor · AutorId · TipoDeAutor</text>
  <rect x="590" y="214" width="340" height="50" rx="8" fill="#eff6ff" stroke="#bfdbfe" stroke-width="1.5"/>
  <text x="760.0" y="244.0" font-size="11.5" text-anchor="middle" fill="#111827" font-weight="600">base externa, entra por seed (fase 05)</text>
  <rect x="590" y="276" width="340" height="44" rx="8" fill="#eff6ff" stroke="#bfdbfe" stroke-width="1.5"/>
  <text x="760.0" y="303.0" font-size="11.5" text-anchor="middle" fill="#111827" font-weight="600">sem fatia · sem rota</text>
  <path d="M 452,170 C 500,170 510,168 586,172" fill="none" stroke="#dc2626" stroke-width="1.6" marker-end="url(#a-red)"/>
  <text x="519" y="148" font-size="10.5" text-anchor="middle" fill="#dc2626" font-weight="400">precisa do TIPO do autor</text>
  <text x="519" y="162" font-size="10.5" text-anchor="middle" fill="#dc2626" font-weight="400">para aplicar o limite</text>
  <path d="M 452,228 C 500,228 510,192 586,190" fill="none" stroke="#9333ea" stroke-width="1.6" marker-end="url(#a-purple)"/>
  <text x="519" y="250" font-size="10.5" text-anchor="middle" fill="#9333ea" font-weight="400">precisa do NOME do autor</text>
  <text x="519" y="264" font-size="10.5" text-anchor="middle" fill="#9333ea" font-weight="400">para procurar</text>
  <rect x="60" y="352" width="900" height="94" rx="8" fill="#fef2f2" stroke="#fecaca" stroke-width="1.5"/>
  <text x="510" y="378" font-size="13" text-anchor="middle" fill="#dc2626" font-weight="700">Se módulo fosse unidade de funcionalidade, cada fatia caberia inteira dentro de um módulo.</text>
  <text x="510" y="400" font-size="13" text-anchor="middle" fill="#dc2626" font-weight="700">Por que as DUAS atravessam?</text>
  <text x="510" y="424" font-size="11" text-anchor="middle" fill="#6b7280" font-weight="400">Porque a fronteira não separa o que o sistema FAZ — separa DE QUEM SÃO OS DADOS. Ela veio da decisão da fase 05:</text>
  <text x="510" y="440" font-size="11" text-anchor="middle" fill="#6b7280" font-weight="400">a base de autores é externa, o acervo é nosso. Cadastrar e procurar um livro exigem saber algo sobre um autor que não é nosso.</text>
  <rect x="60" y="462" width="900" height="122" rx="8" fill="#f9fafb" stroke="#e5e7eb" stroke-width="1.5"/>
  <text x="510" y="488" font-size="12" text-anchor="middle" fill="#111827" font-weight="600">Duas fatias, dois módulos, e mesmo assim NENHUMA correspondência de uma para a outra.</text>
  <text x="510" y="512" font-size="11" text-anchor="middle" fill="#6b7280" font-weight="400">E repare no que autoria NÃO tem: pasta features, arquivo routes.ts, endpoint. Ele não atende requisição nenhuma.</text>
  <text x="510" y="532" font-size="11" text-anchor="middle" fill="#6b7280" font-weight="400">Um módulo pode existir só para ser dono de um dado.</text>
  <text x="510" y="556" font-size="11" text-anchor="middle" fill="#6b7280" font-weight="400">As importações que atravessam mergulham em autoria/domain/ — nas tripas do outro módulo. As fases 48 e 49 resolvem.</text>
  <text x="510" y="576" font-size="11" text-anchor="middle" fill="#dc2626" font-weight="400">E o JOIN da busca por nome, escrito na fase 11, lê a tabela do outro módulo direto. Isso morre na fase 50, e vai custar.</text>
</svg>