<svg xmlns="http://www.w3.org/2000/svg" viewBox="0 0 1120 700" width="1120" height="700">
  <style>text { font-family: 'Helvetica Neue', Helvetica, Arial, sans-serif; } .t{fill:#111827} .s{fill:#6b7280}</style>
  <defs>
    <marker id="a-blue" markerWidth="10" markerHeight="7" refX="9" refY="3.5" orient="auto"><polygon points="0 0, 10 3.5, 0 7" fill="#2563eb"/></marker>
    <marker id="b-blue" markerWidth="10" markerHeight="7" refX="1" refY="3.5" orient="auto"><polygon points="10 0, 0 3.5, 10 7" fill="#2563eb"/></marker>
    <marker id="a-red" markerWidth="10" markerHeight="7" refX="9" refY="3.5" orient="auto"><polygon points="0 0, 10 3.5, 0 7" fill="#dc2626"/></marker>
    <marker id="b-red" markerWidth="10" markerHeight="7" refX="1" refY="3.5" orient="auto"><polygon points="10 0, 0 3.5, 10 7" fill="#dc2626"/></marker>
    <marker id="a-green" markerWidth="10" markerHeight="7" refX="9" refY="3.5" orient="auto"><polygon points="0 0, 10 3.5, 0 7" fill="#16a34a"/></marker>
    <marker id="b-green" markerWidth="10" markerHeight="7" refX="1" refY="3.5" orient="auto"><polygon points="10 0, 0 3.5, 10 7" fill="#16a34a"/></marker>
    <marker id="a-purple" markerWidth="10" markerHeight="7" refX="9" refY="3.5" orient="auto"><polygon points="0 0, 10 3.5, 0 7" fill="#9333ea"/></marker>
    <marker id="b-purple" markerWidth="10" markerHeight="7" refX="1" refY="3.5" orient="auto"><polygon points="10 0, 0 3.5, 10 7" fill="#9333ea"/></marker>
    <marker id="a-orange" markerWidth="10" markerHeight="7" refX="9" refY="3.5" orient="auto"><polygon points="0 0, 10 3.5, 0 7" fill="#ea580c"/></marker>
    <marker id="b-orange" markerWidth="10" markerHeight="7" refX="1" refY="3.5" orient="auto"><polygon points="10 0, 0 3.5, 10 7" fill="#ea580c"/></marker>
    <marker id="a-gray" markerWidth="10" markerHeight="7" refX="9" refY="3.5" orient="auto"><polygon points="0 0, 10 3.5, 0 7" fill="#6b7280"/></marker>
    <marker id="b-gray" markerWidth="10" markerHeight="7" refX="1" refY="3.5" orient="auto"><polygon points="10 0, 0 3.5, 10 7" fill="#6b7280"/></marker>
    <marker id="tri" markerWidth="14" markerHeight="12" refX="13" refY="6" orient="auto"><polygon points="0 0, 13 6, 0 12" fill="#ffffff" stroke="#6b7280" stroke-width="1.3"/></marker>
    <marker id="dia-open" markerWidth="16" markerHeight="10" refX="15" refY="5" orient="auto"><polygon points="0 5, 8 0, 15 5, 8 10" fill="#ffffff" stroke="#6b7280" stroke-width="1.3"/></marker>
    <marker id="dia-full" markerWidth="16" markerHeight="10" refX="15" refY="5" orient="auto"><polygon points="0 5, 8 0, 15 5, 8 10" fill="#6b7280"/></marker>
  </defs>
  <rect width="1120" height="700" fill="#ffffff"/>
  <text x="40" y="42" class="t" font-size="18" font-weight="600">Fase 19 — RF11 — as dez responsabilidades de um handler</text>
  <text x="40" y="64" class="s" font-size="13">A especificação inteira implementada, num único handler de 84 linhas.</text>
  <rect x="102.5" y="96" width="150" height="46" rx="8" fill="#f9fafb" stroke="#e5e7eb" stroke-width="1.5"/>
  <text x="177.5" y="116.0" font-size="12.5" text-anchor="middle" fill="#111827" font-weight="600">cliente</text>
  <text x="177.5" y="134.0" font-size="11.5" text-anchor="middle" fill="#6b7280" font-weight="400">curl</text>
  <line x1="177.5" y1="142" x2="177.5" y2="600" stroke="#cbd5e1" stroke-width="1.3" stroke-dasharray="4,4"/>
  <rect x="357.5" y="96" width="150" height="46" rx="8" fill="#eff6ff" stroke="#bfdbfe" stroke-width="1.5"/>
  <text x="432.5" y="116.0" font-size="12.5" text-anchor="middle" fill="#111827" font-weight="600">handler</text>
  <text x="432.5" y="134.0" font-size="11.5" text-anchor="middle" fill="#6b7280" font-weight="400">POST /livros</text>
  <line x1="432.5" y1="142" x2="432.5" y2="600" stroke="#cbd5e1" stroke-width="1.3" stroke-dasharray="4,4"/>
  <rect x="612.5" y="96" width="150" height="46" rx="8" fill="#f0fdf4" stroke="#bbf7d0" stroke-width="1.5"/>
  <text x="687.5" y="116.0" font-size="12.5" text-anchor="middle" fill="#111827" font-weight="600">autores</text>
  <text x="687.5" y="134.0" font-size="11.5" text-anchor="middle" fill="#6b7280" font-weight="400">tabela</text>
  <line x1="687.5" y1="142" x2="687.5" y2="600" stroke="#cbd5e1" stroke-width="1.3" stroke-dasharray="4,4"/>
  <rect x="867.5" y="96" width="150" height="46" rx="8" fill="#fff7ed" stroke="#fed7aa" stroke-width="1.5"/>
  <text x="942.5" y="116.0" font-size="12.5" text-anchor="middle" fill="#111827" font-weight="600">livros</text>
  <text x="942.5" y="134.0" font-size="11.5" text-anchor="middle" fill="#6b7280" font-weight="400">tabela</text>
  <line x1="942.5" y1="142" x2="942.5" y2="600" stroke="#cbd5e1" stroke-width="1.3" stroke-dasharray="4,4"/>
  <rect x="427.5" y="168" width="10" height="388" rx="2" fill="#eff6ff" stroke="#bfdbfe" stroke-width="1.2"/>
  <line x1="183.5" y1="174" x2="426.5" y2="174" stroke="#2563eb" stroke-width="1.6" marker-end="url(#a-blue)"/>
  <text x="305.0" y="166" font-size="11.5" text-anchor="middle" fill="#2563eb" font-weight="400">{ isbn, titulo, autorId }</text>
  <rect x="251.0" y="197" width="167.5" height="21" rx="4" fill="#fef2f2" stroke="#fecaca" stroke-width="1.2"/>
  <text x="334.75" y="212" font-size="11.5" text-anchor="middle" fill="#dc2626" font-weight="600">1. desserializa o corpo</text>
  <rect x="231.5" y="225" width="187.0" height="21" rx="4" fill="#fef2f2" stroke="#fecaca" stroke-width="1.2"/>
  <text x="325.0" y="240" font-size="11.5" text-anchor="middle" fill="#dc2626" font-weight="600">2. RF10 — normaliza o ISBN</text>
  <rect x="137.5" y="262" width="900" height="300" rx="4" fill="none" stroke="#dc2626" stroke-width="1.3" stroke-dasharray="5,4"/>
  <rect x="137.5" y="253" width="268.4" height="19" rx="3" fill="#ffffff" stroke="#dc2626" stroke-width="1.2"/>
  <text x="145.5" y="266" font-size="11" text-anchor="start" fill="#dc2626" font-weight="700">as sete regras de negócio, aqui dentro</text>
  <line x1="438.5" y1="292" x2="681.5" y2="292" stroke="#16a34a" stroke-width="1.6" marker-end="url(#a-green)"/>
  <text x="560.0" y="284" font-size="11.5" text-anchor="middle" fill="#16a34a" font-weight="400">3. SELECT — o autor existe?</text>
  <line x1="681.5" y1="322" x2="438.5" y2="322" stroke="#16a34a" stroke-width="1.6" stroke-dasharray="5,3" marker-end="url(#a-green)"/>
  <text x="560.0" y="314" font-size="11.5" text-anchor="middle" fill="#16a34a" font-weight="400">autor ou nulo</text>
  <rect x="244.5" y="337" width="174.0" height="21" rx="4" fill="#fef2f2" stroke="#fecaca" stroke-width="1.2"/>
  <text x="331.5" y="352" font-size="11.5" text-anchor="middle" fill="#dc2626" font-weight="600">4. RF04 — sem autor, 404</text>
  <line x1="438.5" y1="384" x2="936.5" y2="384" stroke="#ea580c" stroke-width="1.6" marker-end="url(#a-orange)"/>
  <text x="687.5" y="376" font-size="11.5" text-anchor="middle" fill="#ea580c" font-weight="400">5. SELECT COUNT — deste autor</text>
  <rect x="244.5" y="399" width="174.0" height="21" rx="4" fill="#fef2f2" stroke="#fecaca" stroke-width="1.2"/>
  <text x="331.5" y="414" font-size="11.5" text-anchor="middle" fill="#dc2626" font-weight="600">6. RF05 e RF05' — limite</text>
  <line x1="438.5" y1="446" x2="936.5" y2="446" stroke="#ea580c" stroke-width="1.6" marker-end="url(#a-orange)"/>
  <text x="687.5" y="438" font-size="11.5" text-anchor="middle" fill="#ea580c" font-weight="400">7. SELECT — este ISBN? este título?</text>
  <rect x="225.0" y="461" width="193.5" height="21" rx="4" fill="#fef2f2" stroke="#fecaca" stroke-width="1.2"/>
  <text x="321.75" y="476" font-size="11.5" text-anchor="middle" fill="#dc2626" font-weight="600">8. RF08 e RF09 — duplicatas</text>
  <line x1="438.5" y1="508" x2="936.5" y2="508" stroke="#ea580c" stroke-width="1.6" marker-end="url(#a-orange)"/>
  <text x="687.5" y="500" font-size="11.5" text-anchor="middle" fill="#ea580c" font-weight="400">9. SELECT COUNT do ano + RF07</text>
  <line x1="438.5" y1="544" x2="936.5" y2="544" stroke="#ea580c" stroke-width="1.6" marker-end="url(#a-orange)"/>
  <text x="687.5" y="536" font-size="11.5" text-anchor="middle" fill="#ea580c" font-weight="400">10. INSERT livro</text>
  <line x1="426.5" y1="588" x2="183.5" y2="588" stroke="#2563eb" stroke-width="1.6" marker-end="url(#a-blue)"/>
  <text x="305.0" y="580" font-size="11.5" text-anchor="middle" fill="#2563eb" font-weight="400">201  Location  { livro + nome do autor }</text>
  <rect x="280" y="626" width="560" height="46" rx="6" fill="#fefce8" stroke="#fde68a" stroke-width="1.3"/>
  <text x="560.0" y="646" font-size="11.5" text-anchor="middle" fill="#111827" font-weight="600">Cinco das dez responsabilidades são negócio; cinco são transporte e persistência.</text>
  <text x="560.0" y="663" font-size="11.5" text-anchor="middle" fill="#6b7280" font-weight="400">O arquivo tem dois terços das linhas de aula03.md. O maior handler é ainda maior.</text>
</svg>